<?xml version="1.0" encoding="utf-8"?>
<!-- Generator: Adobe Illustrator 19.0.0, SVG Export Plug-In . SVG Version: 6.00 Build 0)  -->
<svg version="1.1" id="Ñëîé_1" xmlns="http://www.w3.org/2000/svg" xmlns:xlink="http://www.w3.org/1999/xlink" x="0px" y="0px"
	 viewBox="0 0 500 500" style="enable-background:new 0 0 500 500;" xml:space="preserve">
<g id="XMLID_1_">
	<g id="XMLID_2_">
		<polygon id="XMLID_27_" points="144.3,225.1 144.3,211.6 67.5,211.6 67.5,225.1 99,225.1 99,274.9 67.5,274.9 67.5,288.4 
			144.3,288.4 144.3,274.9 112.8,274.9 112.8,225.1 		"/>
		<polygon id="XMLID_26_" points="335.8,225 335.8,211.6 258.4,211.6 258.4,288.4 335.8,288.4 335.8,275 272.3,275 272.3,256.7 
			321.8,256.7 321.8,243.3 272.3,243.3 272.3,225 		"/>
		<path id="XMLID_3_" d="M202.1,211.6h-37.5v76.8h36.8c23.8-0.3,40.2-17,40.2-38.5C241.5,228.6,225.5,212.2,202.1,211.6z
			 M201.4,275.2h-23.1v-50.4h23.3c15.1,0.4,25,10.9,25,25.3C226.6,264.5,216.6,274.9,201.4,275.2z"/>
		<path id="XMLID_4_" d="M390.3,208.2c-23.3,0-42.2,18.7-42.2,41.8c0,23.1,18.9,41.8,42.2,41.8c23.3,0,42.2-18.7,42.2-41.8
			C432.5,226.9,413.6,208.2,390.3,208.2z M390.3,277.4c-15.3,0-27.6-12.2-27.6-27.4c0-15.1,12.4-27.3,27.6-27.3s27.6,12.2,27.6,27.3
			C417.9,265.1,405.6,277.4,390.3,277.4z"/>
	</g>
</g>
</svg>
