<?xml version="1.0" encoding="utf-8"?>
<!-- Generator: Adobe Illustrator 19.0.0, SVG Export Plug-In . SVG Version: 6.00 Build 0)  -->
<svg version="1.1" id="Layer_1" xmlns="http://www.w3.org/2000/svg" xmlns:xlink="http://www.w3.org/1999/xlink" x="0px" y="0px"
	 viewBox="0 0 500 500" style="enable-background:new 0 0 500 500;" xml:space="preserve">
<style type="text/css">
	.st0{fill:#00945E;}
</style>
<g id="XMLID_22_">
	<path id="XMLID_34_" class="st0" d="M219.7,272.1l27.8-53.8c0.9-2.1,2.4-3.3,4.8-3.3c2.7,0,4.8,1.8,4.8,4.8v65
		c0,2.7-1.8,5.1-4.8,5.1c-3.3,0-5.1-2.4-5.1-5.1v-45.4l-22.1,42.4c-1.8,2.7-3.9,3.3-5.4,3.3c-1.2,0-3.6-0.3-5.4-3.3l-22.1-42.4v45.4
		c0,2.7-1.8,5.1-5.1,5.1c-3,0-4.8-2.4-4.8-5.1v-64.7c0-3.3,2.1-4.8,4.8-4.8c2.4,0,3.6,1.2,4.8,3.3L219.7,272.1z M305.7,281.2
		c-15.7,0-28.7-12.7-28.7-28.7c0-15.7,12.7-28.7,28.7-28.7c15.7,0,28.7,12.7,28.7,28.7C334.4,268.5,321.4,281.2,305.7,281.2
		 M344.1,252.4c0-21.2-17.2-38.4-38.4-38.4c-21.2,0-38.4,17.2-38.4,38.4c0,21.2,17.2,38.4,38.4,38.4
		C326.8,290.8,344.1,273.6,344.1,252.4 M391.6,281.2c-15.7,0-28.7-12.7-28.7-28.7c0-15.7,12.7-28.7,28.7-28.7
		c15.7,0,28.7,12.7,28.7,28.7C420.3,268.5,407.3,281.2,391.6,281.2 M430,252.4c0-21.2-17.2-38.4-38.4-38.4
		c-21.2,0-38.4,17.2-38.4,38.4c0,21.2,17.2,38.4,38.4,38.4C412.8,290.8,430,273.6,430,252.4 M109.3,298.7c9.4,0,17.8-4.2,23.6-11.5
		c3.9-5.1,6.1-11.5,6.1-18.2c0-2.1-0.3-3.9-0.6-6.1c-1.2-6.7-6.4-18.2-15.1-33.6c-6.7-11.8-12.4-20.3-12.4-20.3l-1.5-2.1l-1.2,1.8
		c0,0-5.7,8.8-12.4,20.3c-9.1,15.4-14.2,26.9-15.1,33.6c-0.3,2.1-0.6,3.9-0.6,6.1c0,6.7,2.1,12.7,6.1,18.2
		C91.5,294.5,99.9,298.7,109.3,298.7 M109.3,309c-12.4,0-23.6-5.4-31.2-15.4c-5.4-7-8.2-15.1-8.2-23.9c0-2.7,0.3-5.4,0.9-7.9
		c1.5-8.8,7.9-23,19.4-42.7c8.5-14.5,15.4-25.4,15.7-25.4c0.6-1.2,1.5-2.7,3.3-2.7c1.8,0,2.7,1.5,3.6,2.7c0,0,7.3,10.9,15.7,25.4
		c11.5,19.7,17.8,33.9,19.4,42.7c0.6,2.4,0.9,5.1,0.9,7.9c0,8.8-2.7,16.9-8.2,23.9C132.9,303.2,121.4,309,109.3,309"/>
</g>
</svg>
