<?xml version="1.0" encoding="utf-8"?>
<!-- Generator: Adobe Illustrator 26.2.1, SVG Export Plug-In . SVG Version: 6.00 Build 0)  -->
<svg version="1.1" id="Layer_1" xmlns="http://www.w3.org/2000/svg" xmlns:xlink="http://www.w3.org/1999/xlink" x="0px" y="0px"
	 viewBox="0 0 512 512" style="enable-background:new 0 0 512 512;" xml:space="preserve">
<style type="text/css">
	.st0{clip-path:url(#SVGID_00000047036567527380382490000012362749398996271286_);fill:#EA2127;}
</style>
<g>
	<g>
		<defs>
			<rect id="SVGID_1_" y="192.47" width="512" height="127.07"/>
		</defs>
		<clipPath id="SVGID_00000101088395289615342750000008919430900124140424_">
			<use xlink:href="#SVGID_1_"  style="overflow:visible;"/>
		</clipPath>
		<path style="clip-path:url(#SVGID_00000101088395289615342750000008919430900124140424_);fill:#EA2127;" d="M209.92,279.04
			c0.2,4.34-1.12,8.62-3.72,12.1c-2.89,3.02-7,4.57-11.17,4.19c-4.15,0.28-8.23-1.24-11.17-4.19c-2.61-3.48-3.92-7.76-3.72-12.1
			v-47.01h-29.79v51.67c-0.23,5.61,0.89,11.2,3.26,16.29c2.21,4.52,5.59,8.38,9.77,11.17c4.27,2.91,8.99,5.11,13.96,6.52
			c5.79,1.36,11.74,1.98,17.69,1.86c5.78-0.11,11.55-0.73,17.22-1.86c5.04-1.22,9.79-3.43,13.96-6.52
			c4.07-2.92,7.42-6.75,9.77-11.17c2.48-5.07,3.76-10.65,3.72-16.29v-51.67h-29.79V279.04z"/>
		<polygon style="clip-path:url(#SVGID_00000101088395289615342750000008919430900124140424_);fill:#EA2127;" points="99.14,197.59 
			74.94,261.82 50.73,197.59 21.41,197.59 0,316.74 30.72,316.74 41.43,249.25 67.49,316.74 82.39,316.74 108.45,249.25 
			119.16,316.74 149.88,316.74 128.93,197.59 		"/>
		<path style="clip-path:url(#SVGID_00000101088395289615342750000008919430900124140424_);fill:#EA2127;" d="M273.22,232.96
			c-5.44,2.27-10.47,5.41-14.89,9.31c-4.19,4.11-7.51,9.02-9.77,14.43c-2.44,5.74-3.7,11.91-3.72,18.15
			c0.07,6.08,1.33,12.09,3.72,17.69c2.15,5.34,5.5,10.11,9.77,13.96c4.13,4.05,9.04,7.21,14.43,9.31
			c5.62,2.24,11.63,3.35,17.69,3.26c7.24,0.02,14.4-1.57,20.95-4.65v-24.67c-4.55,3.48-10.09,5.44-15.83,5.59
			c-11.2,0.37-20.58-8.42-20.95-19.62c-0.01-0.44-0.01-0.88,0-1.32c-0.21-11.36,8.83-20.74,20.18-20.95h0.76
			c5.76,0.01,11.34,1.98,15.83,5.59v-24.67c-6.19-3.18-13.06-4.78-20.01-4.65C285.17,229.57,279,230.68,273.22,232.96z"/>
		<path style="clip-path:url(#SVGID_00000101088395289615342750000008919430900124140424_);fill:#EA2127;" d="M399.83,240.87
			c-2-2.37-4.35-4.41-6.98-6.05c-2.82-1.52-5.78-2.77-8.84-3.72c-3.33-0.95-6.78-1.42-10.24-1.4c-6.02-0.22-11.98,1.23-17.22,4.19
			c-3.63,2.33-6.92,5.15-9.77,8.38v-49.8h-29.79v124.28h29.79v-45.15c-0.34-4.14,0.81-8.27,3.26-11.64
			c3.13-3.67,7.75-5.72,12.57-5.59c2.46-0.1,4.9,0.54,6.98,1.86c1.98,1.05,3.61,2.67,4.65,4.65c1.63,4.3,2.27,8.92,1.86,13.5v42.82
			h29.79v-54.46c0.28-4.58-0.36-9.17-1.86-13.5C403.39,246.14,401.94,243.24,399.83,240.87z"/>
		<path style="clip-path:url(#SVGID_00000101088395289615342750000008919430900124140424_);fill:#EA2127;" d="M508.28,256.23
			c-2.32-5.37-5.82-10.14-10.24-13.96c-4.55-4.31-9.93-7.64-15.83-9.77c-6.69-2.52-13.79-3.78-20.95-3.72
			c-7.14,0.02-14.23,1.28-20.95,3.72c-5.89,2.13-11.28,5.46-15.83,9.77c-4.35,3.88-7.84,8.64-10.24,13.96
			c-2.39,5.43-3.65,11.29-3.72,17.22c-0.17,12.91,5.47,25.21,15.36,33.51c4.81,4.08,10.33,7.24,16.29,9.31
			c12.35,4.34,25.82,4.34,38.17,0c5.96-2.07,11.48-5.23,16.29-9.31c4.61-4.05,8.4-8.95,11.17-14.43c2.86-5.95,4.29-12.48,4.19-19.08
			C511.93,267.52,510.66,261.66,508.28,256.23z M461.27,295.33c-11.15,0.17-20.32-8.73-20.49-19.88l0.01-1.07
			c-0.1-11.43,9.05-20.79,20.48-20.95c11-0.32,20.18,8.34,20.5,19.34c0.02,0.54,0.01,1.07-0.02,1.61
			c0.57,10.99-7.88,20.36-18.87,20.93C462.34,295.34,461.8,295.35,461.27,295.33z"/>
	</g>
</g>
</svg>
